<?xml version="1.0" encoding="UTF-8" standalone="no"?>
<svg
   version="1.2"
   x="0"
   y="0"
   width="0.39398in"
   height="0.094490007in"
   viewBox="0 0 39.397998 9.4490009"
   id="svg1"
   xmlns="http://www.w3.org/2000/svg"
   xmlns:svg="http://www.w3.org/2000/svg">
  <defs
     id="defs1" />
  <g
     id="breadboard"
     transform="translate(-1.455,-0.268)">
    <path
       fill="none"
       stroke="#8c8c8c"
       stroke-width="2.91"
       d="M 1.455,5.045 H 40.853"
       id="legs"/>
    <path
       id="body"
       fill="#d9b477"
       d="m 14.233,0.688 c -0.5,-0.23 -1.36,-0.41 -1.91,-0.41 h -2.76 c -0.55,0 -1,0.45 -1,1 v 7.439 c 0,0.551 0.45,1 1,1 h 2.76 c 0.55,0 1.41,-0.189 1.91,-0.41 l 0.1,-0.049 c 0.5,-0.23 1.36,-0.41 1.91,-0.41 h 9.98 c 0.551,0 1.409,0.189 1.909,0.41 l 0.101,0.049 c 0.5,0.23 1.358,0.41 1.91,0.41 h 2.76 c 0.552,0 1,-0.449 1,-1 V 1.278 c 0,-0.55 -0.448,-1 -1,-1 h -2.76 c -0.552,0 -1.41,0.19 -1.91,0.41 l -0.101,0.05 c -0.5,0.23 -1.358,0.41 -1.909,0.41 h -9.98 c -0.55,0 -1.41,-0.19 -1.91,-0.41 z" />
    <rect
       id="band_tol"
       x="30.582001"
       y="0.26899999"
       fill="#ad9f4e"
       width="0.97600001"
       height="9.4379997" />
    <rect
       id="metal_shadow"
       x="30.582001"
       y="4.8379998"
       opacity="0.4"
       width="0.97600001"
       height="4.3790002" />
    <rect
       id="metal_reflex2"
       x="30.582001"
       y="1.0880001"
       opacity="0.5"
       fill="#ffffff"
       width="0.97600001"
       height="1.04" />
    <rect
       id="metal_reflex1"
       x="30.582001"
       y="0.588"
       opacity="0.75"
       fill="#ffff33"
       width="0.97600001"
       height="2.25" />
    <g
       id="4band">
      <rect
         id="4band_mult"
         fill="#8a3d06"
         x="22.462"
         y="1.148"
         width="2.5699999"
         height="7.6900001" />
      <rect
         id="4band_2"
         fill="#c40808"
         x="17.323"
         y="1.148"
         width="2.5699999"
         height="7.6900001" />
      <rect
         id="4band_mult_shadow"
         x="22.462"
         y="4.8379998"
         opacity="0.4"
         width="2.5700014"
         height="3.6300001" />
      <rect
         id="4band_mult_reflex"
         x="22.462"
         y="1.3669999"
         opacity="0.75"
         width="2.5700014"
         height="1.8428701"/>
    </g>
    <g
       id="5band">
      <rect
         id="5band_3"
         x="20.461493"
         y="1.1475387"
         fill="#8a3d06"
         width="2.5708075"
         height="7.6902013"
         style="stroke-width:1.38888" />
      <rect
         id="5band_2"
         x="16.322643"
         y="1.1475387"
         fill="#c40808"
         width="2.5694187"
         height="7.6902013"
         style="stroke-width:1.38888" />
      <path
         id="5band_mult"
         fill="#8a3d06"
         d="m 24.43923,1.1517047 c 0,0 1.662483,0 1.944425,0 0.281942,0 0.608327,-0.0875 0.608327,-0.0875 v 7.8776994 c 0,0 -0.281941,-0.090277 -0.608327,-0.090277 -0.326386,0 -1.944425,-0.00972 -1.944425,-0.00972 z"/>
      <path
         d="m 24.440027,1.3588757 v 1.8636066 h 1.605226 c 0.133679,0 0.286394,-0.0054 0.44759,-0.014242 0.161197,-0.00883 0.330401,-0.021083 0.498455,-0.036622 V 1.2429077 c -0.0069,0.0014 -0.01347,0.0027 -0.02035,0.0041 -0.167707,0.03385 -0.336612,0.06215 -0.496419,0.08138 -0.0799,0.0096 -0.157749,0.01728 -0.231934,0.02238 -0.07418,0.0051 -0.143583,0.0081 -0.209555,0.0081 z"
         opacity="0.75"
         id="5band_mult_reflex" />
      <path
         d="m 24.440027,4.8378793 v 1.4506022 2.1789551 h 1.597087 c 0.06597,0 0.135374,0.00304 0.209555,0.00814 0.07418,0.0051 0.152029,0.012764 0.231932,0.022379 0.159808,0.019228 0.328714,0.047526 0.49642,0.08138 0.0056,0.00113 0.01069,0.00293 0.01628,0.00407 V 6.3393463 4.8378814 Z"
         opacity="0.4"
         id="5band_mult_shadow" />
    </g>
    <path
       id="band_1"
       fill="#c40808"
       d="m 14.762,0.888 c -0.16,-0.05 -0.31,-0.1 -0.43,-0.16 l -0.1,-0.05 c -0.5,-0.229 -1.36,-0.41 -1.91,-0.41 h -0.12 v 9.439 h 0.12 c 0.55,0 1.41,-0.189 1.91,-0.41 l 0.1,-0.049 c 0.12,-0.062 0.27,-0.111 0.43,-0.16 z" />
    <path
       id="ReflexRight"
       opacity="0.35"
       fill="#ffffff"
       d="m 27.432,1.508 c 0.319,0 0.682,-0.14 0.92,-0.24 0.28,-0.11 0.801,-0.2 1.342,-0.2 h 2.029 c 0.312,0 0.312,0.34 0.312,0.52 0,0.18 -0.021,0.53 -0.312,0.53 h -4.25 c -0.149,0 -0.32,-0.16 -0.32,-0.311 0.009,-0.119 0.109,-0.299 0.279,-0.299 z" />
    <circle
       id="ReflexLeft"
       opacity="0.35"
       fill="#ffffff"
       cx="9.7220001"
       cy="1.5779999"
       r="0.60000002" />
    <path
       id="Shadow"
       opacity="0.3"
       d="m 32.932,5.68 v 0 c 0,0.527 -0.181,0.971 -0.41,0.971 h -2.67 c -0.528,0 -1.358,-0.078 -1.851,-0.17 L 27.9,6.459 C 27.421,6.369 26.582,6.289 26.048,6.289 H 16.4 c -0.53,0 -1.36,0.08 -1.85,0.17 L 14.45,6.48 C 13.97,6.571 13.14,6.65 12.6,6.65 H 12.16 10.77 10.34 C 9.81,6.65 9.37,7.058 9.37,7.546 V 7.889 8.11 8.35 c 0,0.5 0.44,0.896 0.97,0.896 h 2.25 c 0.53,0 1.36,-0.17 1.85,-0.371 l 0.1,-0.039 C 15.02,8.64 15.86,8.468 16.39,8.468 h 9.648 c 0.527,0 1.357,0.172 1.853,0.369 l 0.103,0.039 c 0.479,0.201 1.312,0.371 1.852,0.371 h 3.09 c 0.529,0 0.971,-0.41 0.971,-0.896 V 7.6 6.249 3.688 c -0.385,0.15 -0.975,0.57 -0.975,1.992 z" />
  </g>
</svg>
